<svg xmlns="http://www.w3.org/2000/svg" width="228.779" height="42.697" viewBox="0 0 228.779 42.697">
  <g id="Groupe_258" data-name="Groupe 258" transform="translate(-463.103 -369.285)">
    <g id="Groupe_251" data-name="Groupe 251" transform="translate(463.103 369.285)">
      <path id="Tracé_24840" data-name="Tracé 24840" d="M474.053,369.285a10.406,10.406,0,0,0-1.644,20.739V385.7a6.3,6.3,0,0,1-5.051-5.986,6.718,6.718,0,0,1,13.392,0,6.309,6.309,0,0,1-5.208,6.019v4.312a10.408,10.408,0,0,0-1.488-20.759" transform="translate(-463.103 -369.285)" fill="#ff8000"/>
    </g>
    <rect id="Rectangle_16" data-name="Rectangle 16" width="8.167" height="4.478" transform="translate(464.241 391.118)" fill="#ff8000"/>
    <rect id="Rectangle_17" data-name="Rectangle 17" width="8.179" height="4.479" transform="translate(475.54 391.117)" fill="#ff8000"/>
    <g id="Groupe_252" data-name="Groupe 252" transform="translate(493.976 402.445)">
      <path id="Tracé_24841" data-name="Tracé 24841" d="M489,395.525a.975.975,0,0,0-.981-.979h-1.2c-.076,0-.109.031-.109.108v1.852c0,.078.033.111.109.111h1.2a.977.977,0,0,0,.981-.982Zm1.046,4.927c0,.055-.044.087-.109.087H489.1l-.1-.076-1.012-2.91-.089-.065h-1.078c-.076,0-.109.033-.109.109v2.833c0,.076-.034.109-.111.109h-.763c-.075,0-.109-.033-.109-.109v-6.649c0-.076.034-.109.109-.109h2.18a1.832,1.832,0,0,1,1.963,1.962v.109a1.807,1.807,0,0,1-.622,1.243c-.2.186-.392.218-.392.327a.041.041,0,0,0,.011.033l1.057,3.052a.111.111,0,0,1,.01.055" transform="translate(-485.735 -393.565)" fill="#ff8000"/>
      <path id="Tracé_24842" data-name="Tracé 24842" d="M493.4,396.808a.983.983,0,0,0-1.962.022c0,.12.011.164.109.164h1.743c.1,0,.109-.055.109-.186m.872.948h-2.724c-.076,0-.109.033-.109.109v.437a.977.977,0,0,0,.981.981.784.784,0,0,0,.6-.24c.24-.284.337-.458.4-.458a.158.158,0,0,1,.065.023l.688.348c.042.022.065.044.065.076a1.4,1.4,0,0,1-.458.664,1.924,1.924,0,0,1-1.363.458,1.8,1.8,0,0,1-1.962-1.852v-1.417a1.965,1.965,0,0,1,3.923,0v.763c0,.076-.033.109-.109.109" transform="translate(-484.016 -393.07)" fill="#ff8000"/>
      <path id="Tracé_24843" data-name="Tracé 24843" d="M496.046,396.426c0,.447.392.557,1.187.72,1.166.228,1.734.512,1.734,1.363a1.623,1.623,0,0,1-1.8,1.645h-.327c-1.079,0-1.776-.664-1.776-1.1a.1.1,0,0,1,.064-.075l.633-.317a.185.185,0,0,1,.055-.022c.033,0,.055.033.087.065.262.338.457.611.937.611h.327c.5,0,.827-.284.827-.632,0-.469-.477-.524-1.383-.709-1.035-.207-1.526-.522-1.526-1.341a1.6,1.6,0,0,1,1.756-1.6h.327c1.079,0,1.776.666,1.776,1.1,0,.034-.022.055-.065.078l-.632.316a.28.28,0,0,1-.065.02c-.033,0-.044-.031-.076-.065-.273-.349-.469-.61-.937-.61h-.327c-.512,0-.8.206-.8.555" transform="translate(-482.338 -393.071)" fill="#ff8000"/>
      <path id="Tracé_24844" data-name="Tracé 24844" d="M501.991,400.376a1.8,1.8,0,0,1-1.754-1.842v-2.18c0-.078-.034-.109-.11-.109h-.6c-.076,0-.109-.034-.109-.109l.022-.382,1.254-1.329.076-.034h.338c.075,0,.108.034.108.109v.763c0,.078.033.11.109.11h.764c.076,0,.108.031.108.109v.653c0,.075-.031.109-.108.109h-.764c-.076,0-.109.031-.109.109v2.18a.983.983,0,0,0,.24.632,2.057,2.057,0,0,0,.655.338c.055.022.086.042.086.109v.653c0,.1-.055.109-.206.109" transform="translate(-480.753 -393.303)" fill="#ff8000"/>
      <path id="Tracé_24845" data-name="Tracé 24845" d="M505.855,398.138a.1.1,0,0,0-.109-.109h-1.252a.47.47,0,0,0-.48.479v.175a.473.473,0,0,0,.48.491h.424a1.007,1.007,0,0,0,.928-.786l.01-.206Zm.872,1.907h-.653c-.076,0-.109-.033-.109-.109v-.142c0-.075-.033-.12-.076-.12-.162,0-.468.371-.97.371h-.424a1.352,1.352,0,0,1-1.45-1.363v-.065a1.343,1.343,0,0,1,1.45-1.35h1.252c.076,0,.109-.034.109-.111l-.01-.3a.953.953,0,0,0-.982-.959.809.809,0,0,0-.589.24c-.239.261-.337.435-.4.435a.143.143,0,0,1-.065-.022l-.664-.348c-.044-.023-.065-.044-.065-.089a1.352,1.352,0,0,1,.49-.663,1.885,1.885,0,0,1,1.3-.415,1.792,1.792,0,0,1,1.963,1.82l.011,1.439v1.645c0,.076-.034.109-.111.109" transform="translate(-479.432 -393.07)" fill="#ff8000"/>
      <path id="Tracé_24846" data-name="Tracé 24846" d="M511.523,400.016h-.655c-.076,0-.108-.033-.108-.109v-.131c0-.076-.033-.12-.078-.12a2.612,2.612,0,0,1-1.089.36,1.8,1.8,0,0,1-1.887-1.852v-2.942c0-.078.034-.109.109-.109h.764c.076,0,.108.031.108.109v2.942a.982.982,0,0,0,1.963,0v-2.942c0-.078.031-.109.109-.109h.762c.076,0,.109.031.109.109v4.686c0,.076-.033.109-.109.109" transform="translate(-477.734 -393.041)" fill="#ff8000"/>
      <path id="Tracé_24847" data-name="Tracé 24847" d="M515.2,396.18a3.715,3.715,0,0,0-.535-.076.9.9,0,0,0-.979.969v2.835c0,.076-.034.109-.109.109h-.763c-.078,0-.11-.033-.11-.109v-4.686c0-.078.033-.109.11-.109h.652c.076,0,.11.031.11.109v.348c0,.087.042.131.1.131.109,0,.437-.588,1.025-.588.415,0,.567.011.567.141v.817c0,.066-.022.111-.065.111" transform="translate(-475.916 -393.041)" fill="#ff8000"/>
      <path id="Tracé_24848" data-name="Tracé 24848" d="M518.8,398.138a.1.1,0,0,0-.109-.109h-1.254a.47.47,0,0,0-.48.479v.175a.473.473,0,0,0,.48.491h.426a1.007,1.007,0,0,0,.926-.786l.011-.206Zm.872,1.907h-.655c-.075,0-.108-.033-.108-.109v-.142c0-.075-.033-.12-.078-.12-.162,0-.468.371-.969.371h-.426a1.353,1.353,0,0,1-1.45-1.363v-.065a1.344,1.344,0,0,1,1.45-1.35h1.254c.076,0,.109-.034.109-.111l-.011-.3a.952.952,0,0,0-.981-.959.807.807,0,0,0-.589.24c-.24.261-.337.435-.4.435a.138.138,0,0,1-.065-.022l-.666-.348c-.044-.023-.066-.044-.066-.089a1.358,1.358,0,0,1,.491-.663,1.882,1.882,0,0,1,1.3-.415,1.789,1.789,0,0,1,1.96,1.82l.012,1.439v1.645c0,.076-.033.109-.109.109" transform="translate(-474.72 -393.07)" fill="#ff8000"/>
      <path id="Tracé_24849" data-name="Tracé 24849" d="M522.92,400.376a1.8,1.8,0,0,1-1.754-1.842v-2.18c0-.078-.034-.109-.109-.109h-.6c-.076,0-.109-.034-.109-.109l.022-.382,1.254-1.329.076-.034h.338c.076,0,.108.034.108.109v.763c0,.078.033.11.109.11h.764c.076,0,.108.031.108.109v.653c0,.075-.031.109-.108.109h-.764c-.076,0-.109.031-.109.109v2.18a.983.983,0,0,0,.24.632,2.056,2.056,0,0,0,.655.338c.055.022.086.042.086.109v.653c0,.1-.053.109-.206.109" transform="translate(-473.132 -393.303)" fill="#ff8000"/>
      <path id="Tracé_24850" data-name="Tracé 24850" d="M526.973,396.808a.984.984,0,0,0-1.963.022c0,.12.011.164.109.164h1.745c.1,0,.109-.055.109-.186m.872.948h-2.726c-.075,0-.109.033-.109.109v.437a.978.978,0,0,0,.981.981.784.784,0,0,0,.6-.24c.24-.284.337-.458.4-.458a.146.146,0,0,1,.065.023l.686.348c.045.022.066.044.066.076a1.4,1.4,0,0,1-.457.664,1.922,1.922,0,0,1-1.363.458,1.8,1.8,0,0,1-1.962-1.852v-1.417a1.966,1.966,0,0,1,3.924,0v.763c0,.076-.034.109-.109.109" transform="translate(-471.791 -393.07)" fill="#ff8000"/>
      <path id="Tracé_24851" data-name="Tracé 24851" d="M532.508,400.016h-.653c-.078,0-.109-.033-.109-.109v-.131c0-.076-.034-.12-.078-.12a2.612,2.612,0,0,1-1.089.36,1.793,1.793,0,0,1-1.885-1.852v-2.942c0-.078.031-.109.108-.109h.764c.076,0,.108.031.108.109v2.942a.982.982,0,0,0,1.963,0v-2.942c0-.078.031-.109.109-.109h.763c.076,0,.109.031.109.109v4.686c0,.076-.033.109-.109.109" transform="translate(-470.093 -393.041)" fill="#ff8000"/>
      <path id="Tracé_24852" data-name="Tracé 24852" d="M536.182,396.18a3.752,3.752,0,0,0-.535-.076.9.9,0,0,0-.979.969v2.835c0,.076-.034.109-.11.109H533.8c-.076,0-.109-.033-.109-.109v-4.686c0-.078.033-.109.109-.109h.653c.076,0,.109.031.109.109v.348c0,.087.044.131.1.131.109,0,.435-.588,1.025-.588.415,0,.568.011.568.141v.817c0,.066-.022.111-.065.111" transform="translate(-468.275 -393.041)" fill="#ff8000"/>
      <path id="Tracé_24853" data-name="Tracé 24853" d="M537.99,396.426c0,.447.392.557,1.188.72,1.166.228,1.732.512,1.732,1.363a1.623,1.623,0,0,1-1.8,1.645h-.326c-1.08,0-1.777-.664-1.777-1.1a.1.1,0,0,1,.065-.075l.632-.317a.2.2,0,0,1,.055-.022c.033,0,.055.033.089.065.26.338.457.611.937.611h.326c.5,0,.829-.284.829-.632,0-.469-.48-.524-1.386-.709-1.035-.207-1.525-.522-1.525-1.341a1.6,1.6,0,0,1,1.756-1.6h.326c1.079,0,1.777.666,1.777,1.1,0,.034-.023.055-.065.078l-.633.316a.274.274,0,0,1-.064.02c-.034,0-.045-.031-.078-.065-.271-.349-.468-.61-.937-.61h-.326c-.513,0-.8.206-.8.555" transform="translate(-467.065 -393.071)" fill="#ff8000"/>
      <path id="Tracé_24854" data-name="Tracé 24854" d="M542.44,399.958a1.3,1.3,0,0,1-.655.48c-.033,0-.053-.023-.076-.078l-.151-.315c0-.011-.011-.022-.011-.033,0-.153.468-.349.468-.992,0-.12-.022-.175-.109-.175h-.142c-.076,0-.109-.033-.109-.109v-.784c0-.076.033-.109.109-.109h.981a.1.1,0,0,1,.11.109v.675a1.923,1.923,0,0,1-.415,1.33" transform="translate(-465.413 -392.046)" fill="#ff8000"/>
      <path id="Tracé_24855" data-name="Tracé 24855" d="M551.435,400.54h-.763c-.076,0-.109-.033-.109-.109V397.6a.1.1,0,0,0-.109-.108H548.22c-.076,0-.109.033-.109.108v2.835c0,.076-.031.109-.109.109h-.762c-.076,0-.109-.033-.109-.109v-6.647c0-.078.033-.11.109-.11H548a.1.1,0,0,1,.109.11v2.724c0,.076.033.108.109.108h2.234c.076,0,.109-.031.109-.108v-2.724c0-.078.033-.11.109-.11h.763c.076,0,.109.033.109.11v6.647c0,.076-.033.109-.109.109" transform="translate(-463.38 -393.565)" fill="#ff8000"/>
      <path id="Tracé_24856" data-name="Tracé 24856" d="M555.207,396.885a.981.981,0,1,0-1.962,0V398.3a.981.981,0,1,0,1.962,0Zm-.981,3.27a1.8,1.8,0,0,1-1.962-1.854v-1.416a1.965,1.965,0,0,1,3.923,0V398.3a1.8,1.8,0,0,1-1.962,1.854" transform="translate(-461.51 -393.071)" fill="#ff8000"/>
      <path id="Tracé_24857" data-name="Tracé 24857" d="M559.271,400.376a1.8,1.8,0,0,1-1.754-1.842v-2.18c0-.078-.034-.109-.109-.109h-.6c-.076,0-.109-.034-.109-.109l.022-.382,1.254-1.329.076-.034h.338c.075,0,.108.034.108.109v.763c0,.078.033.11.109.11h.763c.078,0,.109.031.109.109v.653c0,.075-.031.109-.109.109h-.763c-.076,0-.109.031-.109.109v2.18a.983.983,0,0,0,.24.632,2.055,2.055,0,0,0,.655.338c.055.022.086.042.086.109v.653c0,.1-.055.109-.206.109" transform="translate(-459.896 -393.303)" fill="#ff8000"/>
      <path id="Tracé_24858" data-name="Tracé 24858" d="M563.324,396.808a.984.984,0,0,0-1.963.022c0,.12.011.164.109.164h1.743c.1,0,.111-.055.111-.186m.872.948H561.47c-.075,0-.109.033-.109.109v.437a.977.977,0,0,0,.981.981.784.784,0,0,0,.6-.24c.239-.284.337-.458.4-.458a.158.158,0,0,1,.065.023l.686.348c.045.022.065.044.065.076a1.4,1.4,0,0,1-.457.664,1.922,1.922,0,0,1-1.363.458,1.8,1.8,0,0,1-1.962-1.852v-1.417a1.966,1.966,0,0,1,3.925,0v.763c0,.076-.034.109-.109.109" transform="translate(-458.555 -393.07)" fill="#ff8000"/>
      <path id="Tracé_24859" data-name="Tracé 24859" d="M565.948,400.54h-.763c-.078,0-.11-.033-.11-.109v-6.647c0-.078.033-.11.11-.11h.763c.075,0,.109.033.109.11v6.647c0,.076-.034.109-.109.109" transform="translate(-456.846 -393.565)" fill="#ff8000"/>
      <path id="Tracé_24860" data-name="Tracé 24860" d="M568.812,400.569h-.762c-.076,0-.109-.033-.109-.109v-4.686c0-.076.033-.111.109-.111h.762c.076,0,.109.034.109.111v4.686c0,.076-.033.109-.109.109m-.381-5.777a.584.584,0,0,1-.6-.6.6.6,0,1,1,.6.6" transform="translate(-455.842 -393.594)" fill="#ff8000"/>
      <path id="Tracé_24861" data-name="Tracé 24861" d="M573.418,396.808a.983.983,0,0,0-1.962.022c0,.12.01.164.109.164h1.743c.1,0,.109-.055.109-.186m.872.948h-2.724c-.076,0-.109.033-.109.109v.437a.977.977,0,0,0,.981.981.786.786,0,0,0,.6-.24c.239-.284.337-.458.4-.458a.157.157,0,0,1,.065.023l.688.348c.042.022.065.044.065.076a1.415,1.415,0,0,1-.458.664,1.924,1.924,0,0,1-1.363.458,1.8,1.8,0,0,1-1.963-1.852v-1.417a1.966,1.966,0,0,1,3.925,0v.763c0,.076-.033.109-.109.109" transform="translate(-454.88 -393.07)" fill="#ff8000"/>
      <path id="Tracé_24862" data-name="Tracé 24862" d="M577.666,396.18a3.754,3.754,0,0,0-.533-.076.9.9,0,0,0-.981.969v2.835c0,.076-.034.109-.11.109h-.763c-.076,0-.109-.033-.109-.109v-4.686c0-.078.033-.109.109-.109h.653c.076,0,.109.031.109.109v.348c0,.087.045.131.1.131.109,0,.436-.588,1.024-.588.415,0,.567.011.567.141v.817c0,.066-.022.111-.065.111" transform="translate(-453.17 -393.041)" fill="#ff8000"/>
      <path id="Tracé_24863" data-name="Tracé 24863" d="M579.474,396.426c0,.447.393.557,1.188.72,1.166.228,1.732.512,1.732,1.363a1.623,1.623,0,0,1-1.8,1.645h-.326c-1.08,0-1.777-.664-1.777-1.1a.1.1,0,0,1,.066-.075l.632-.317a.2.2,0,0,1,.055-.022c.034,0,.055.033.089.065.261.338.457.611.937.611h.326c.5,0,.828-.284.828-.632,0-.469-.479-.524-1.383-.709-1.037-.207-1.527-.522-1.527-1.341a1.6,1.6,0,0,1,1.756-1.6h.326c1.079,0,1.777.666,1.777,1.1,0,.034-.023.055-.065.078l-.633.316a.246.246,0,0,1-.065.02c-.033,0-.044-.031-.076-.065-.271-.349-.468-.61-.937-.61h-.326c-.513,0-.8.206-.8.555" transform="translate(-451.96 -393.071)" fill="#ff8000"/>
      <path id="Tracé_24864" data-name="Tracé 24864" d="M583.924,399.958a1.3,1.3,0,0,1-.653.48c-.034,0-.055-.023-.078-.078l-.151-.315c0-.011-.011-.022-.011-.033,0-.153.468-.349.468-.992,0-.12-.022-.175-.109-.175h-.142c-.075,0-.109-.033-.109-.109v-.784c0-.076.034-.109.109-.109h.981a.1.1,0,0,1,.11.109v.675a1.922,1.922,0,0,1-.415,1.33" transform="translate(-450.307 -392.046)" fill="#ff8000"/>
      <path id="Tracé_24865" data-name="Tracé 24865" d="M590.867,400.464a.1.1,0,0,1-.109.076h-.588a.1.1,0,0,1-.109-.076l-2.027-6.649c0-.022-.011-.033-.011-.044,0-.066.044-.1.12-.1h.817c.065,0,.1.023.109.076l1.417,4.991,1.372-4.991c.011-.053.045-.076.11-.076h.817c.075,0,.12.033.12.1,0,.011-.011.033-.011.044Z" transform="translate(-448.49 -393.565)" fill="#ff8000"/>
      <path id="Tracé_24866" data-name="Tracé 24866" d="M595.735,396.885a.981.981,0,1,0-1.962,0V398.3a.981.981,0,1,0,1.962,0Zm-.981,3.27a1.8,1.8,0,0,1-1.962-1.854v-1.416a1.965,1.965,0,0,1,3.924,0V398.3a1.8,1.8,0,0,1-1.963,1.854" transform="translate(-446.753 -393.071)" fill="#ff8000"/>
      <path id="Tracé_24867" data-name="Tracé 24867" d="M599.429,402.578a2.062,2.062,0,0,1-1.188-.316c-.424-.316-.632-.611-.632-.8,0-.033.022-.055.065-.076l.686-.349a.187.187,0,0,1,.055-.022c.044,0,.065.033.1.076.262.338.415.61.915.61a.977.977,0,0,0,.981-.981v-.9c0-.076-.044-.119-.087-.119-.142,0-.382.315-.894.315a1.8,1.8,0,0,1-1.962-1.852V395.22c0-.075.033-.109.109-.109h.763c.076,0,.109.034.109.109v2.944a.981.981,0,0,0,1.962,0V395.22c0-.075.034-.109.109-.109h.763c.076,0,.109.034.109.109v5.4a1.816,1.816,0,0,1-1.962,1.963" transform="translate(-445.051 -393.042)" fill="#ff8000"/>
      <path id="Tracé_24868" data-name="Tracé 24868" d="M605.106,398.138a.1.1,0,0,0-.109-.109h-1.254a.47.47,0,0,0-.48.479v.175a.473.473,0,0,0,.48.491h.426a1.007,1.007,0,0,0,.926-.786l.011-.206Zm.872,1.907h-.655c-.076,0-.108-.033-.108-.109v-.142c0-.075-.034-.12-.076-.12-.164,0-.469.371-.97.371h-.426a1.353,1.353,0,0,1-1.45-1.363v-.065a1.344,1.344,0,0,1,1.45-1.35H605c.075,0,.109-.034.109-.111l-.011-.3a.952.952,0,0,0-.981-.959.807.807,0,0,0-.589.24c-.239.261-.337.435-.4.435a.133.133,0,0,1-.065-.022l-.666-.348c-.042-.023-.066-.044-.066-.089a1.359,1.359,0,0,1,.491-.663,1.882,1.882,0,0,1,1.3-.415,1.792,1.792,0,0,1,1.962,1.82l.011,1.439v1.645c0,.076-.033.109-.109.109" transform="translate(-443.294 -393.07)" fill="#ff8000"/>
      <path id="Tracé_24869" data-name="Tracé 24869" d="M610.327,401a.5.5,0,0,0-.491-.491h-1.472a.5.5,0,0,0-.49.491v.109a.5.5,0,0,0,.49.491h1.472a.5.5,0,0,0,.491-.491Zm-.491-4.032a.981.981,0,0,0-1.962,0v.1a.981.981,0,1,0,1.962,0Zm0,5.5h-1.472a1.365,1.365,0,0,1-1.472-1.363V401a1.08,1.08,0,0,1,.252-.708c.239-.251.4-.349.4-.426a2.382,2.382,0,0,1-.151-.6,1.537,1.537,0,0,1,.206-.708,4.94,4.94,0,0,0-.426-.524,1.631,1.631,0,0,1-.284-.971v-.1a1.859,1.859,0,0,1,1.963-1.852c.544,0,.861.359,1.013.359.044,0,.076-.044.076-.12v-.13c0-.078.033-.109.109-.109h.653c.076,0,.109.031.109.109v1.84a1.859,1.859,0,0,1-1.962,1.854c-.065,0-.175-.011-.316-.022-.186.109-.282.229-.282.371,0,.175.1.284.293.37h1.286A1.372,1.372,0,0,1,611.308,401v.109a1.372,1.372,0,0,1-1.472,1.363" transform="translate(-441.619 -393.041)" fill="#ff8000"/>
      <path id="Tracé_24870" data-name="Tracé 24870" d="M614.476,396.808a.983.983,0,0,0-1.962.022c0,.12.012.164.109.164h1.743c.1,0,.109-.055.109-.186m.873.948h-2.725c-.076,0-.109.033-.109.109v.437a.977.977,0,0,0,.981.981.784.784,0,0,0,.6-.24c.24-.284.337-.458.4-.458a.164.164,0,0,1,.065.023l.686.348c.042.022.066.044.066.076a1.4,1.4,0,0,1-.458.664,1.924,1.924,0,0,1-1.363.458,1.8,1.8,0,0,1-1.96-1.852v-1.417a1.965,1.965,0,0,1,3.923,0v.763c0,.076-.034.109-.109.109" transform="translate(-439.928 -393.07)" fill="#ff8000"/>
      <path id="Tracé_24871" data-name="Tracé 24871" d="M620.013,400.016h-.655c-.076,0-.108-.033-.108-.109v-.131c0-.076-.033-.12-.078-.12a2.613,2.613,0,0,1-1.089.36,1.8,1.8,0,0,1-1.887-1.852v-2.942c0-.078.034-.109.109-.109h.763c.078,0,.109.031.109.109v2.942a.982.982,0,0,0,1.963,0v-2.942c0-.078.031-.109.109-.109h.763c.076,0,.109.031.109.109v4.686c0,.076-.033.109-.109.109" transform="translate(-438.231 -393.041)" fill="#ff8000"/>
      <path id="Tracé_24872" data-name="Tracé 24872" d="M623.687,396.18a3.72,3.72,0,0,0-.535-.076.9.9,0,0,0-.979.969v2.835c0,.076-.034.109-.109.109H621.3c-.076,0-.109-.033-.109-.109v-4.686c0-.078.033-.109.109-.109h.653c.076,0,.11.031.11.109v.348c0,.087.044.131.1.131.109,0,.435-.588,1.025-.588.413,0,.567.011.567.141v.817c0,.066-.022.111-.065.111" transform="translate(-436.412 -393.041)" fill="#ff8000"/>
      <path id="Tracé_24873" data-name="Tracé 24873" d="M625.495,396.426c0,.447.393.557,1.188.72,1.166.228,1.732.512,1.732,1.363a1.623,1.623,0,0,1-1.8,1.645h-.326c-1.08,0-1.778-.664-1.778-1.1a.1.1,0,0,1,.066-.075l.632-.317a.2.2,0,0,1,.055-.022c.034,0,.055.033.089.065.26.338.457.611.937.611h.326c.5,0,.829-.284.829-.632,0-.469-.48-.524-1.385-.709-1.037-.207-1.526-.522-1.526-1.341a1.6,1.6,0,0,1,1.756-1.6h.326c1.08,0,1.777.666,1.777,1.1,0,.034-.023.055-.066.078l-.632.316a.27.27,0,0,1-.067.02c-.033,0-.042-.031-.076-.065-.271-.349-.468-.61-.937-.61h-.326c-.513,0-.8.206-.8.555" transform="translate(-435.202 -393.071)" fill="#ff8000"/>
    </g>
    <rect id="Rectangle_18" data-name="Rectangle 18" width="1.961" height="17.654" transform="translate(493.989 377.857)" fill="#ff8000"/>
    <g id="Groupe_253" data-name="Groupe 253" transform="translate(499.435 378.838)">
      <path id="Tracé_24874" data-name="Tracé 24874" d="M497.148,383.886c0-2.179-1.09-3.378-2.726-3.378s-2.723,1.2-2.723,3.378v.653h5.448Zm-5.448,2.18v1.09c0,2.179,1.089,3.378,2.723,3.378a2.517,2.517,0,0,0,2.616-2.615H499a4.424,4.424,0,0,1-4.578,4.358,4.612,4.612,0,0,1-4.686-4.794V383.56a4.687,4.687,0,1,1,9.372,0v2.506Z" transform="translate(-489.737 -375.386)" fill="#ff8000"/>
      <path id="Tracé_24875" data-name="Tracé 24875" d="M503.318,392.277c-2.615,0-4.795-1.525-4.795-4.14h1.963c0,1.634,1.416,2.4,2.832,2.4,1.308,0,2.616-.783,2.616-2.069,0-3.052-6.975-1.09-6.975-5.994,0-2.071,2.071-3.7,4.249-3.7a4.127,4.127,0,0,1,4.36,4.14h-1.962a2.288,2.288,0,0,0-2.4-2.4,2.195,2.195,0,0,0-2.4,1.962c0,3.052,6.975,1.089,6.975,5.994,0,2.069-1.962,3.813-4.469,3.813" transform="translate(-486.538 -375.386)" fill="#ff8000"/>
      <path id="Tracé_24876" data-name="Tracé 24876" d="M521.715,387.513c0,3.268-2.071,5.774-5.339,5.774a5.5,5.5,0,0,1-5.558-5.774v-5.448a5.5,5.5,0,0,1,5.558-5.777c3.268,0,5.339,2.506,5.339,5.777h-2.18c-.108-2.289-1.219-3.815-3.159-3.815-2.072,0-3.379,1.636-3.379,4.358v4.36c0,2.724,1.307,4.358,3.379,4.358,1.94,0,3.052-1.525,3.159-3.813Z" transform="translate(-482.061 -376.288)" fill="#ff8000"/>
      <path id="Tracé_24877" data-name="Tracé 24877" d="M528.371,387.156v-3.27c0-2.18-1.09-3.378-2.724-3.378s-2.724,1.2-2.724,3.378v3.27c0,2.179,1.09,3.378,2.724,3.378s2.724-1.2,2.724-3.378m1.962.327a4.687,4.687,0,1,1-9.372,0V383.56a4.687,4.687,0,1,1,9.372,0Z" transform="translate(-478.368 -375.386)" fill="#ff8000"/>
    </g>
    <path id="Tracé_24878" data-name="Tracé 24878" d="M539.481,392.874h-8.936V376.528h2.07v14.384h6.865Z" transform="translate(24.557 2.637)" fill="#ff8000"/>
    <rect id="Rectangle_19" data-name="Rectangle 19" width="1.961" height="12.556" transform="translate(559.571 379.165)" fill="#ff8000"/>
    <g id="Groupe_254" data-name="Groupe 254" transform="translate(567.636 379.164)">
      <path id="Tracé_24879" data-name="Tracé 24879" d="M547.143,383.886c0-2.179-1.089-3.378-2.724-3.378s-2.724,1.2-2.724,3.378v.653h5.448Zm-5.448,2.18v1.09c0,2.179,1.09,3.378,2.724,3.378a2.515,2.515,0,0,0,2.615-2.615H549a4.425,4.425,0,0,1-4.578,4.358,4.611,4.611,0,0,1-4.686-4.794V383.56a4.687,4.687,0,1,1,9.372,0v2.506Z" transform="translate(-539.733 -375.712)" fill="#ff8000"/>
      <path id="Tracé_24880" data-name="Tracé 24880" d="M558.1,387.483a4.525,4.525,0,0,1-4.577,4.795,4.611,4.611,0,0,1-4.686-4.795V383.56a4.611,4.611,0,0,1,4.686-4.795,4.524,4.524,0,0,1,4.577,4.795H556.14a2.767,2.767,0,0,0-2.615-3.052c-1.634,0-2.725,1.2-2.725,3.378v3.27c0,2.179,1.091,3.378,2.725,3.378a2.765,2.765,0,0,0,2.615-3.05Z" transform="translate(-536.417 -375.712)" fill="#ff8000"/>
      <path id="Tracé_24881" data-name="Tracé 24881" d="M556.826,379.8H558.9v-3.271h1.854V379.8h2.941v1.525h-2.941v7.628c0,1.742.653,2.4,1.96,2.4H563.8v1.526a8.3,8.3,0,0,1-1.417.108c-2.289,0-3.6-1.416-3.6-3.814v-7.845h-1.962Z" transform="translate(-533.509 -376.527)" fill="#ff8000"/>
    </g>
    <path id="Tracé_24882" data-name="Tracé 24882" d="M566.056,393.222h-1.962V380.145h1.962Zm0-15.691h-1.962v-1.96h1.962Z" transform="translate(36.773 2.289)" fill="#ff8000"/>
    <g id="Groupe_255" data-name="Groupe 255" transform="translate(606.315 382.217)">
      <path id="Tracé_24883" data-name="Tracé 24883" d="M575.5,387.156v-3.27c0-2.18-1.09-3.378-2.724-3.378s-2.724,1.2-2.724,3.378v3.27c0,2.179,1.09,3.378,2.724,3.378s2.724-1.2,2.724-3.378m1.962.327a4.687,4.687,0,1,1-9.372,0V383.56a4.687,4.687,0,1,1,9.372,0Z" transform="translate(-568.088 -378.765)" fill="#ff8000"/>
      <path id="Tracé_24884" data-name="Tracé 24884" d="M588.979,383.886v8.174h-1.962V378.983h1.743V381.1a4.08,4.08,0,0,1,3.6-2.331c2.4,0,3.814,1.962,3.814,4.686v8.609h-1.96v-8.283c0-2.178-.872-3.159-2.507-3.159s-2.724,1.089-2.724,3.268" transform="translate(-561.195 -378.765)" fill="#ff8000"/>
    </g>
    <path id="Tracé_24885" data-name="Tracé 24885" d="M605.835,392h-9.153V378.924h9.153v1.962h-7.084v3.563h6.429v1.961h-6.429v3.629h7.084Z" transform="translate(48.639 3.51)" fill="#ff8000"/>
    <g id="Groupe_256" data-name="Groupe 256" transform="translate(657.741 382.217)">
      <path id="Tracé_24886" data-name="Tracé 24886" d="M612.98,387.1v-8.172h1.96V392H613.2v-2.091a4.086,4.086,0,0,1-3.6,2.311c-2.289,0-3.814-1.745-3.814-4.467v-8.827h1.962v8.5c0,2.18.981,2.942,2.506,2.942,1.636,0,2.725-1.089,2.725-3.268" transform="translate(-605.787 -378.707)" fill="#ff8000"/>
      <path id="Tracé_24887" data-name="Tracé 24887" d="M621.039,378.845V380.7h-.218a3.219,3.219,0,0,0-3.488,3.378v7.956h-1.96V378.954h1.743v2.026a4.145,4.145,0,0,1,3.487-2.135Z" transform="translate(-602.297 -378.736)" fill="#ff8000"/>
      <path id="Tracé_24888" data-name="Tracé 24888" d="M625.518,392.277c-2.615,0-4.795-1.525-4.795-4.14h1.962c0,1.634,1.416,2.4,2.833,2.4,1.308,0,2.615-.783,2.615-2.069,0-3.052-6.973-1.09-6.973-5.994,0-2.071,2.069-3.7,4.249-3.7a4.127,4.127,0,0,1,4.36,4.14h-1.962a2.288,2.288,0,0,0-2.4-2.4,2.194,2.194,0,0,0-2.4,1.962c0,3.052,6.975,1.089,6.975,5.994,0,2.069-1.963,3.813-4.469,3.813" transform="translate(-600.348 -378.765)" fill="#ff8000"/>
    </g>
    <path id="Tracé_24889" data-name="Tracé 24889" d="M584.7,378.924v9.681l-5.231-9.675v-.006h-1.961V392h1.961v-9.645L584.7,392h1.966V378.924Z" transform="translate(41.659 3.51)" fill="#ff8000"/>
    <g id="Groupe_257" data-name="Groupe 257" transform="translate(585.399 383.513)">
      <path id="Tracé_24890" data-name="Tracé 24890" d="M555.35,394.546h-2.485c-.076,0-.109-.033-.109-.11v-.566c0-.076.033-.109.109-.109h2.485c.076,0,.109.033.109.109v.566c0,.078-.033.11-.109.11" transform="translate(-552.755 -374.601)" fill="#ff8000"/>
      <path id="Tracé_24891" data-name="Tracé 24891" d="M629.862,380.749v.517h.3a.238.238,0,0,0,.244-.261.234.234,0,0,0-.244-.256Zm-.243-.211h.547a.475.475,0,0,1,.237.893l.281.5h-.274l-.232-.456h-.316v.456h-.243Zm.487,1.947a1.247,1.247,0,1,0-1.247-1.248,1.249,1.249,0,0,0,1.247,1.248m0-2.769a1.521,1.521,0,1,1-1.521,1.521,1.522,1.522,0,0,1,1.521-1.521" transform="translate(-525.144 -379.715)" fill="#ff8000"/>
    </g>
  </g>
</svg>