<svg xmlns="http://www.w3.org/2000/svg" width="476" height="58.888" viewBox="0 0 476 58.888">
  <g id="Groupe_25" data-name="Groupe 25" transform="translate(-500.555 246.54)">
    <g id="Groupe_18" data-name="Groupe 18" transform="translate(605.932 -228.491)">
      <path id="Tracé_1" data-name="Tracé 1" d="M603.4-212.014c0,1.884.166,2.677.728,3.107.694.528,1.785.528,3.272.528a5.362,5.362,0,0,0,3.834-1.29,18.851,18.851,0,0,0,1.885-3.272l.495.1c-.165.925-.893,4.3-1.156,5.19H597.717v-.463c2.776-.364,3.04-.76,3.04-4.331v-11.9c0-3.569-.264-3.966-3.04-4.33v-.463h8.791v.463c-2.843.363-3.107.76-3.107,4.33Z" transform="translate(-597.717 229.962)" fill="#b68b00"/>
      <path id="Tracé_2" data-name="Tracé 2" d="M627.772-224.343c0-3.569-.265-3.966-2.909-4.33v-.463h14.345c.033.562.2,2.975.363,4.826l-.5.1a7.452,7.452,0,0,0-1.488-3.041c-.5-.562-1.487-1.157-4-1.157h-2.182c-.925,0-.991.066-.991.992v8.065h3.338c2.843,0,2.941-.331,3.6-2.776h.5v6.544h-.5c-.331-1.256-.528-1.95-.991-2.313-.463-.4-1.19-.463-2.612-.463h-3.338v6.347c0,1.884.2,2.677.76,3.107.694.528,1.884.528,3.437.528a5.838,5.838,0,0,0,4.165-1.322,15.21,15.21,0,0,0,1.918-3.24l.5.1c-.165.925-.893,4.3-1.156,5.19h-15.5v-.463c2.975-.364,3.24-.76,3.24-4.331Z" transform="translate(-595.45 229.962)" fill="#b68b00"/>
      <path id="Tracé_3" data-name="Tracé 3" d="M685.812-229.072a1.785,1.785,0,0,0,1.685-.826h.332c.033,1.388.2,3.8.363,5.718l-.5.1a11.46,11.46,0,0,0-1.422-3.14c-.528-.662-1.521-1.125-3.537-1.125h-2.446v15.965c0,3.57.265,3.966,3.5,4.331v.463h-9.519v-.463c3.107-.364,3.372-.76,3.372-4.331v-15.965H675.93c-2.941,0-3.735.662-4.231,1.323a10.632,10.632,0,0,0-1.388,2.941h-.5c.132-2.016.331-4.132.4-5.818h.33c.5.76.959.826,1.851.826Z" transform="translate(-591.621 229.898)" fill="#b68b00"/>
      <path id="Tracé_4" data-name="Tracé 4" d="M710.105-229.593c5.651,0,10.412,4.429,10.412,10.907,0,6.909-4.76,11.568-11.073,11.568-6.28,0-10.643-4.759-10.643-10.94C698.8-223.677,702.57-229.593,710.105-229.593Zm.066,21.749c3.934,0,7.172-3.437,7.172-9.585,0-7.206-3.338-11.436-8.164-11.436-3.867,0-7.206,3.536-7.206,9.849C701.974-212.637,705.213-207.844,710.171-207.844Z" transform="translate(-589.17 229.924)" fill="#b68b00"/>
      <path id="Tracé_5" data-name="Tracé 5" d="M740.488-229.136v.463c-2.643.363-2.908.76-2.908,4.33v7.007c0,2.81.363,4.925,1.388,6.412a5.535,5.535,0,0,0,4.891,2.281,5.685,5.685,0,0,0,4.892-2.578c1.091-1.653,1.487-4.562,1.487-7.337v-1.819a35.668,35.668,0,0,0-.363-6.28c-.231-1.157-1.124-1.753-3.306-2.016v-.463h7.966v.463c-1.818.231-2.677.859-2.908,2.016a31.307,31.307,0,0,0-.5,6.313v2.215c0,3.834-.6,6.544-2.513,8.593a8.408,8.408,0,0,1-5.883,2.38,8.464,8.464,0,0,1-5.289-1.685c-1.719-1.421-2.512-3.669-2.512-7.437v-8.065c0-3.569-.265-3.966-3.041-4.33v-.463Z" transform="translate(-586.372 229.962)" fill="#b68b00"/>
      <path id="Tracé_6" data-name="Tracé 6" d="M770.821-212.445c0,3.57.265,3.966,2.975,4.331v.463H765.2v-.463c2.775-.364,3.04-.76,3.04-4.331v-11.9c0-3.569-.265-3.966-2.908-4.33v-.463h8.228a9.682,9.682,0,0,1,5.191,1.124,4.811,4.811,0,0,1,2.181,4.231c0,2.644-1.687,4.694-4.462,5.818.562.991,1.917,3.238,2.908,4.694a43.226,43.226,0,0,0,2.976,3.866,3.844,3.844,0,0,0,2.446,1.587l-.034.4c-.4,0-.959-.034-1.983-.132a5.713,5.713,0,0,1-4.66-2.81c-1.323-1.883-2.48-4-3.472-5.652a2.309,2.309,0,0,0-2.38-1.222h-1.454Zm0-5.453h1.554a6.207,6.207,0,0,0,3.768-.859,5.466,5.466,0,0,0,1.917-4.562c0-3.635-2.414-5.156-5.157-5.156a5.6,5.6,0,0,0-1.785.165c-.2.066-.3.232-.3.893Z" transform="translate(-583.555 229.962)" fill="#b68b00"/>
      <path id="Tracé_7" data-name="Tracé 7" d="M800.806-212.445c0,3.57.264,3.966,2.975,4.331v.463h-8.593v-.463c2.709-.364,2.974-.76,2.974-4.331v-11.9c0-3.569-.265-3.966-2.974-4.33v-.463h8.593v.463c-2.711.363-2.975.76-2.975,4.33Z" transform="translate(-581.02 229.962)" fill="#b68b00"/>
      <path id="Tracé_8" data-name="Tracé 8" d="M835.558-207.42h-.53l-14.774-17.948h-.066v8.958a33.115,33.115,0,0,0,.431,6.28c.231,1.157,1.122,1.752,3.3,2.016v.463h-7.966v-.463c1.818-.232,2.678-.859,2.909-2.016a33.254,33.254,0,0,0,.43-6.28v-7.107c0-2.81-.033-3.007-.627-3.735a4.59,4.59,0,0,0-2.943-1.421v-.463h4.793l14.08,16.923h.066v-8.165a33.253,33.253,0,0,0-.429-6.28c-.231-1.157-1.124-1.753-3.306-2.016v-.463H838.9v.463c-1.818.231-2.677.859-2.908,2.016a33.253,33.253,0,0,0-.429,6.28Z" transform="translate(-579.283 229.962)" fill="#b68b00"/>
      <path id="Tracé_9" data-name="Tracé 9" d="M868.276-223.511c-1.222-4.2-3.965-5.354-7.04-5.354-4.99,0-8.263,3.866-8.263,10.113,0,5.024,2.38,10.907,8.925,10.907a7.54,7.54,0,0,0,2.975-.5c.76-.331,1.222-.661,1.222-2.182v-3.172c0-2.215-.132-2.612-3.734-3.041v-.462h8.363v.462c-1.851.463-1.984.728-1.984,3.041v2.247a15.485,15.485,0,0,0,.2,3.007,28.433,28.433,0,0,1-7.207,1.322c-6.94,0-12-4.528-12-11.006,0-7.469,5.949-11.469,12.2-11.469a24.827,24.827,0,0,1,6.313.859c.1,1.125.266,2.843.529,5.123Z" transform="translate(-576.408 229.924)" fill="#b68b00"/>
    </g>
    <g id="Groupe_19" data-name="Groupe 19" transform="translate(919.523 -225.719)">
      <path id="Tracé_10" data-name="Tracé 10" d="M889.632-227.342l.632,2.045,2.14-.031-1.749,1.233.69,2.026-1.713-1.283-1.713,1.283.69-2.026-1.749-1.233,2.14.031Z" transform="translate(-886.86 227.342)" fill="#b68b00"/>
      <path id="Tracé_11" data-name="Tracé 11" d="M901.5-227.342l.632,2.045,2.14-.031-1.749,1.233.69,2.026-1.713-1.283-1.713,1.283.69-2.026-1.749-1.233,2.14.031Z" transform="translate(-885.856 227.342)" fill="#b68b00"/>
      <path id="Tracé_12" data-name="Tracé 12" d="M913.368-227.342,914-225.3l2.14-.031-1.749,1.233.69,2.026-1.713-1.283-1.713,1.283.69-2.026-1.749-1.233,2.14.031Z" transform="translate(-884.853 227.342)" fill="#b68b00"/>
      <path id="Tracé_13" data-name="Tracé 13" d="M925.237-227.342l.632,2.045,2.14-.031L926.26-224.1l.69,2.026-1.713-1.283-1.713,1.283.69-2.026-1.749-1.233,2.14.031Z" transform="translate(-883.849 227.342)" fill="#b68b00"/>
      <path id="Tracé_14" data-name="Tracé 14" d="M937.105-227.342l.632,2.045,2.14-.031-1.749,1.233.69,2.026-1.713-1.283-1.713,1.283.69-2.026-1.749-1.233,2.14.031Z" transform="translate(-882.846 227.342)" fill="#b68b00"/>
    </g>
    <g id="Groupe_20" data-name="Groupe 20" transform="translate(500.555 -246.54)">
      <path id="Tracé_15" data-name="Tracé 15" d="M521.154-226.072a.5.5,0,0,0-.522-.359,2.473,2.473,0,0,0-.489.073c-.1.02-.2.042-.307.059-.469.072-1,.117-1.127.13a1.329,1.329,0,0,1-.065-.414.646.646,0,0,1,.323-.649c.039-.031.08-.064.12-.1.119-.1.18-.159.184-.229s-.043-.114-.121-.2l-.068-.075c-.2-.218-.031-.677.1-1.047a1.25,1.25,0,0,1,.809-.693c.147-.054.221-.081.239-.145s-.026-.116-.113-.223l-.1-.133a2.01,2.01,0,0,1-.171-1.247,1.328,1.328,0,0,1,.6-.883c.082-.057.123-.112.126-.172,0-.094-.086-.167-.187-.252a1.372,1.372,0,0,1-.159-.143,1.178,1.178,0,0,1-.348-.826,1.047,1.047,0,0,1,.5-.956c.145-.094.215-.153.207-.222s-.106-.113-.283-.177l-.077-.027c-.242-.085-.351-.124-.45-.528a1.506,1.506,0,0,1,.3-1.217c.06-.055.126-.128.114-.206s-.119-.141-.28-.215l-.012-.005c-.236-.111-.344-.329-.483-.744a.725.725,0,0,1,.34-.91c.079-.046.157-.1.148-.176s-.124-.111-.262-.146c-.054-.014-.108-.029-.157-.047a2.465,2.465,0,0,1-.772-.451c-.226-.2-.169-.561-.122-.855l.018-.114c.02-.128.026-.17,0-.2s-.06-.028-.1-.028a.58.58,0,0,1-.111-.009,2.328,2.328,0,0,1-.847-.448,1.27,1.27,0,0,1-.222-.935c.043-.277-.065-.32-.3-.386a4.219,4.219,0,0,1-1.094-.538.887.887,0,0,1-.423-.824.2.2,0,0,0-.027-.156.079.079,0,0,0-.062-.029c-.05,0-.131.034-.338.288-.092.115-.369-.1-.668-.326l-.024-.018c-.307-.233-.251-.329-.135-.527a.182.182,0,0,0,.019-.189.225.225,0,0,0-.211-.087.791.791,0,0,0-.174.022.146.146,0,0,1-.039.005c-.025,0-.031,0-.035-.077,0-.055-.008-.13-.079-.156a.714.714,0,0,0-.358.078,2.812,2.812,0,0,1-.534.145c-.022,0-.041,0-.06,0-.036,0-.082-.007-.1-.033-.021-.042.01-.164.166-.364a.159.159,0,0,0,.037-.166c-.041-.082-.177-.117-.455-.117-.079,0-.164,0-.246.005l-.1,0c-.105,0-.129-.014-.136-.02a.183.183,0,0,1,0-.066.732.732,0,0,0,0-.127c-.014-.123-.087-.149-.145-.149a.623.623,0,0,0-.194.051,1.4,1.4,0,0,1-.14.047c-.04.01-.074.015-.1.021-.126.024-.187.042-.275.219l-.021.044c-.09.178-.164.331-.339.372l-.117.026a4,4,0,0,0-.714.206.778.778,0,0,1-.287.088c-.076,0-.17-.03-.3-.257-.176-.322.037-.632.281-.99l.048-.069c.1-.152.111-.205.091-.242a.062.062,0,0,0-.059-.034c-.1,0-.323.2-.452.351a2.16,2.16,0,0,0-.308,1.433c.047.434-.2.582-.567.808a6.449,6.449,0,0,0-1.18.965,1.209,1.209,0,0,1-.458.288,1.98,1.98,0,0,1,.083-.754c.038-.12.034-.159.014-.187a.06.06,0,0,0-.049-.024c-.142,0-.625.836-.629.845a1.3,1.3,0,0,1-.609.482c-.086.044-.176.09-.262.142a3.693,3.693,0,0,1-1.174.531c-.344.042-.355.35-.365.649,0,.067,0,.136-.01.2-.033.352-.142.427-.38.517-.106.039-.266.092-.434.147-.25.084-.533.177-.751.264a1.513,1.513,0,0,1-.543.1,1.16,1.16,0,0,1-.447-.076.81.81,0,0,0-.279-.06.3.3,0,0,0-.265.123c-.143.216-.035.526.171.927a.921.921,0,0,1-.068.914l-.023.054a.4.4,0,0,0-.017.4.357.357,0,0,0,.362.127,1.043,1.043,0,0,1,.381.046,1.541,1.541,0,0,0,.465.056,2.84,2.84,0,0,0,.978-.273,5.714,5.714,0,0,1,1.218-.387,9.529,9.529,0,0,1,1.7-.113c.528,0,.984.021,1.114.025a1.017,1.017,0,0,0,.283.435c.257.258.631.743.631.743l.1.2c.037.075.085.112.14.112.113,0,.218-.149.374-.421.17-.3.4-.306.831-.318l.1,0c.151-.005.321,0,.495,0h.232a3.66,3.66,0,0,0,.845-.065.479.479,0,0,1,.121-.018.368.368,0,0,1,.276.156.684.684,0,0,0,.193.155.349.349,0,0,0,.139.037c.146,0,.168-.154.194-.355.015-.111.075-.117.259-.121a1.7,1.7,0,0,0,.359-.034c.117-.025.281-.078.455-.136a3.8,3.8,0,0,1,.947-.23.4.4,0,0,1,.131.018.139.139,0,0,1,.086.091,1.936,1.936,0,0,1-.39,1.134l-.022.036a3.93,3.93,0,0,1-.838,1.054,2.527,2.527,0,0,0-.508.657.97.97,0,0,1-.228.307,1.559,1.559,0,0,0-.437.487l-.035.052a1.071,1.071,0,0,1-.27.275,2.565,2.565,0,0,0-.284.243l-.158.163a2.672,2.672,0,0,1-.709.6.424.424,0,0,0-.253.233.481.481,0,0,0,.011.375c.069.153.036.282-.125.474a1.392,1.392,0,0,1-.4.3c-.069.041-.142.085-.217.134a1.451,1.451,0,0,0-.464.741.72.72,0,0,1-.228.278,2.854,2.854,0,0,0-.37.388,2.186,2.186,0,0,0-.472,1.246,1.723,1.723,0,0,1-.2.7c-.037.085-.076.172-.111.265a1.712,1.712,0,0,0-.073.667,2.337,2.337,0,0,1-.013.394,3.2,3.2,0,0,1-.065.326,2.092,2.092,0,0,0-.065.418,1.833,1.833,0,0,0,.194.708,3.1,3.1,0,0,1,.118.309,1.836,1.836,0,0,1,.037.506,2.641,2.641,0,0,0,.028.525c.014.073.026.146.039.22a1.914,1.914,0,0,0,.215.734,1.909,1.909,0,0,1,.209.515c.03.1.062.2.1.3a2.59,2.59,0,0,0,.177.335,3.4,3.4,0,0,1,.3.6,1.064,1.064,0,0,0,.727.574c-.024.057-.074.17-.166.344l-.041.077c-.129.241-.205.386-.106.6a1,1,0,0,0,.834.388.229.229,0,0,0,.188-.077c.1-.123.061-.356.021-.562l-.013-.075a.477.477,0,0,1,.057-.347c.142.121.636.54.9.74.219.165.229.446.248.953.005.162.012.345.027.555a11.021,11.021,0,0,0,.924,3.547c.258.575.613,1.311.988,2.091.471.983.96,2,1.245,2.671a10.478,10.478,0,0,1,.785,3.789,6.1,6.1,0,0,1-1.562,3.283,4.934,4.934,0,0,1-3,.923,3.582,3.582,0,0,1-1.813-.564l-.035-.021a1.4,1.4,0,0,1-.566-.73.487.487,0,0,0-.1-.279.323.323,0,0,1-.039-.067.419.419,0,0,1-.021-.087.493.493,0,0,0-.065-.19.486.486,0,0,1-.008-.264,1.3,1.3,0,0,0,.014-.181A1.084,1.084,0,0,0,508-204.1c-.005-.038-.005-.042.021-.1a.526.526,0,0,1,.063-.107.164.164,0,0,0,.043-.091.393.393,0,0,0-.005-.066c-.009-.053-.018-.127.018-.163a.3.3,0,0,0,.1-.277c-.005-.067.157-.137.243-.173a.5.5,0,0,0,.2-.144l.042-.044c.091-.094.121-.086.2-.08l.071.011a.412.412,0,0,0,.231-.013.183.183,0,0,1,.175.008l.029.015a.773.773,0,0,1,.1.072.485.485,0,0,0,.2.121h.07c.056,0,.076.008.081.014a.042.042,0,0,1,0,.022.291.291,0,0,0,.123.312c.038.022.056.038.059.054s0,.038-.055.1c-.094.108-.005.191.042.235s.056.057.049.075a.526.526,0,0,1-.039.068c-.04.061-.061.107.012.208a.324.324,0,0,1,.025.043.243.243,0,0,1-.056.028l-.048.02a.216.216,0,0,0-.131.171.745.745,0,0,1-.031.094l-.005.015a.282.282,0,0,1-.07-.091l-.029-.055-.048.042a.191.191,0,0,1-.1.048.051.051,0,0,1-.046-.027c-.082-.114-.121-.128-.148-.128h-.014a.408.408,0,0,1-.094.014c-.029,0-.038-.007-.034-.01a.216.216,0,0,0,0-.132c-.011-.036-.015-.056.028-.114a.485.485,0,0,0,.072-.126.284.284,0,0,1,.1-.13c.081-.073.137-.137.137-.209a.285.285,0,0,0-.119-.192.209.209,0,0,0-.145-.049.959.959,0,0,0-.67.407l-.008.014a.969.969,0,0,0,.27,1.412,1.431,1.431,0,0,0,.809.253,1.523,1.523,0,0,0,1.129-.508,2.89,2.89,0,0,0,.421-1.609,1.272,1.272,0,0,0-.111-.472.876.876,0,0,1-.054-.16.682.682,0,0,0-.173-.291.81.81,0,0,1-.111-.15.635.635,0,0,0-.37-.358,1.028,1.028,0,0,1-.44-.292.477.477,0,0,0-.337-.14,1.255,1.255,0,0,1-.211-.039c-.035-.011-.068-.021-.1-.033a1.366,1.366,0,0,0-.4-.084.657.657,0,0,0-.145.016,1.658,1.658,0,0,0-.164.048.463.463,0,0,1-.347.02.3.3,0,0,0-.108-.024c-.106,0-.176.077-.262.171a2,2,0,0,1-.174.174.4.4,0,0,1-.27.11.192.192,0,0,0-.2.141c-.061.183-.163.272-.382.435a.525.525,0,0,1-.133.077c-.056.023-.061.047-.065.113,0,.023,0,.056-.01.1a.424.424,0,0,1-.15.307c-.031.031-.066.069-.105.117a.392.392,0,0,0-.128.384l0,.031a1.557,1.557,0,0,1-.208.723.2.2,0,0,0,.034.289.269.269,0,0,1,.09.154.942.942,0,0,1-.012.48l-.009.02.008.018a2.284,2.284,0,0,0,.219.473.982.982,0,0,1,.162.535.224.224,0,0,0,.134.221.244.244,0,0,1,.126.125,1.4,1.4,0,0,0,.164.236c.042.053.107.133.1.156a.215.215,0,0,0,.024.17.337.337,0,0,0,.206.169.141.141,0,0,1,.094.074.487.487,0,0,0,.155.151c.053.03.119.071.2.118.168.1.375.231.577.347s.469.253.659.35l.194.1a1.356,1.356,0,0,0,.682.108c.36,0,.421.087.485.177a.3.3,0,0,0,.252.081,2.491,2.491,0,0,0,.64-.113,1.187,1.187,0,0,1,.307-.044c.163,0,.267.048.283.094a.113.113,0,0,0,.112.081.721.721,0,0,0,.332-.17.731.731,0,0,1,.273-.093,1.626,1.626,0,0,0,.411-.133.818.818,0,0,1,.3-.1c.046,0,.053.017.058.036s.03.078.125.078a.546.546,0,0,0,.4-.241c.124-.187.182-.207.419-.293a3.024,3.024,0,0,0,.543-.292c.061-.039.119-.074.172-.106a.241.241,0,0,1,.243-.009.7.7,0,0,0,.188.049.143.143,0,0,0,.117-.038c.056-.056.054-.155.052-.269a.817.817,0,0,1,.028-.267,1.061,1.061,0,0,1,.279-.328,2.041,2.041,0,0,0,.286-.3c.056-.079.1-.116.122-.116a.208.208,0,0,1,.078.03.882.882,0,0,0,.178.073.149.149,0,0,0,.17-.044c.084-.108.028-.356-.044-.624-.043-.166.068-.36.21-.605.048-.082.1-.169.148-.264.076-.144.136-.257.163-.257a.248.248,0,0,1,.04.009.589.589,0,0,0,.094.022.254.254,0,0,0,.048,0h0a.171.171,0,0,0,.141-.059c.055-.066.064-.182.028-.388a3.5,3.5,0,0,1,.089-1.06l.026-.156c.073-.45.118-.466.219-.5a.782.782,0,0,0,.117-.053c.157-.091.092-.231,0-.423a3.248,3.248,0,0,1-.206-.537c-.152-.547-.005-.638.216-.777l.009-.005c.1-.064.149-.117.153-.176.005-.074-.055-.126-.131-.191l-.048-.041a1.435,1.435,0,0,1-.381-.669c-.108-.315-.063-.339.106-.431l.036-.018a.17.17,0,0,0,.105-.128c.01-.091-.084-.168-.2-.269l-.107-.093-.051-.047c-.148-.133-.175-.157-.245-.47-.067-.3-.064-.3.061-.411l.055-.051c.079-.075.129-.138.118-.2s-.081-.1-.179-.144l-.034-.014a1.09,1.09,0,0,1-.486-.552.655.655,0,0,1,.129-.707c.069-.11.1-.167.087-.225s-.069-.086-.161-.132c-.03-.016-.066-.035-.108-.059-.254-.142-.259-.166-.338-.461s-.026-.365.2-.559c.1-.087.139-.149.126-.206-.018-.078-.113-.1-.244-.14l-.065-.017c-.2-.057-.245-.148-.377-.48a.456.456,0,0,1,.1-.522c.022-.028.043-.059.064-.089.06-.091.091-.14.078-.19s-.051-.065-.111-.1a1.11,1.11,0,0,1-.114-.063c-.04-.025-.074-.043-.1-.06-.13-.073-.174-.1-.271-.343a.485.485,0,0,1,.047-.58c.074-.115.094-.184.074-.24s-.083-.077-.152-.1l-.027-.008a.323.323,0,0,1-.268-.257c-.067-.2.083-.387.273-.619l.047-.056c.09-.112.12-.18.1-.239s-.09-.087-.163-.111a.7.7,0,0,1-.107-.038c-.136-.062-.138-.08-.084-.486l.008-.047c.043-.324.153-.335.291-.348.028,0,.057-.007.087-.012a.217.217,0,0,0,.155-.085.283.283,0,0,0-.02-.224l-.011-.031.023-.005h.017c.056,0,.213.072.419.723.029.094.057.19.088.284a3.387,3.387,0,0,0,.351.919.237.237,0,0,0,.175.064,1.326,1.326,0,0,0,.423-.116l.047-.02a2.861,2.861,0,0,1,.408-.1,3.142,3.142,0,0,0,.352-.083,1.729,1.729,0,0,0,.555-.265c.056-.038.106-.071.153-.1a1.153,1.153,0,0,0,.359-.3.729.729,0,0,1,.222-.207c.04-.026.087-.057.143-.1a.929.929,0,0,0,.232-.313.9.9,0,0,1,.153-.226.7.7,0,0,0,.15-.22,1.03,1.03,0,0,1,.181-.275,1.559,1.559,0,0,0,.307-.535c.029-.073.063-.153.1-.247a5.254,5.254,0,0,0,.245-.7c.04-.131.083-.281.142-.457a2.658,2.658,0,0,0,.151-.836c0-.076.008-.153.016-.242.013-.155.033-.268.052-.387a5.521,5.521,0,0,0,.079-.682A7.792,7.792,0,0,0,521.154-226.072Z" transform="translate(-500.555 246.54)" fill="#cca42a"/>
      <path id="Tracé_16" data-name="Tracé 16" d="M519.977-223.752a5.544,5.544,0,0,0,.078.682c.021.119.039.232.053.387.008.089.012.166.015.242a2.69,2.69,0,0,0,.151.836c.059.176.1.325.143.457a5.264,5.264,0,0,0,.245.7c.041.094.074.175.1.247a1.526,1.526,0,0,0,.307.535,1.023,1.023,0,0,1,.18.275.7.7,0,0,0,.151.22.9.9,0,0,1,.153.226.923.923,0,0,0,.23.313c.059.043.1.075.145.1a.729.729,0,0,1,.222.207,1.142,1.142,0,0,0,.359.3c.046.028.1.061.152.1a1.736,1.736,0,0,0,.556.265,3.146,3.146,0,0,0,.353.083,2.823,2.823,0,0,1,.408.1l.048.02a1.313,1.313,0,0,0,.422.116.237.237,0,0,0,.175-.064,3.347,3.347,0,0,0,.351-.919c.029-.094.057-.19.088-.284.2-.652.361-.723.419-.723h.017l.023.005c0,.01-.008.02-.012.031-.028.086-.054.163-.018.224a.214.214,0,0,0,.155.085c.029.005.059.008.088.012.137.013.245.024.288.348l.008.047c.055.406.053.424-.082.486a.8.8,0,0,1-.107.038c-.074.024-.143.047-.162.111s.012.127.1.239l.047.056c.19.232.341.418.273.619a.325.325,0,0,1-.268.257l-.027.008c-.068.02-.13.038-.152.1s0,.125.075.24a.486.486,0,0,1,.044.58c-.1.245-.14.27-.269.343-.03.016-.065.035-.105.06a1.117,1.117,0,0,1-.114.063c-.06.031-.1.051-.112.1s.02.1.079.19c.021.03.042.061.064.089a.456.456,0,0,1,.1.522c-.133.333-.177.423-.378.48l-.065.017c-.13.036-.226.062-.243.14-.014.057.025.119.126.206.223.193.273.272.2.559s-.085.319-.338.461c-.04.024-.077.042-.108.059-.09.047-.144.076-.159.132s.016.115.087.225a.659.659,0,0,1,.129.707,1.1,1.1,0,0,1-.486.552l-.035.014c-.1.043-.167.076-.179.144s.04.127.119.2l.055.051c.126.114.128.116.061.411-.07.312-.1.336-.245.47l-.052.047c-.036.033-.073.064-.108.093-.117.1-.211.178-.2.269,0,.051.038.092.1.128l.036.018c.169.091.215.116.106.431a1.434,1.434,0,0,1-.382.669.512.512,0,0,1-.047.041c-.077.065-.137.117-.131.191,0,.059.05.112.153.176l.009.005c.222.139.368.23.216.777a3.14,3.14,0,0,1-.207.537c-.091.192-.157.332,0,.423a.789.789,0,0,0,.119.053c.1.037.146.053.219.5l.026.156a3.528,3.528,0,0,1,.089,1.06c-.037.206-.027.322.027.388a.172.172,0,0,0,.142.059h0a.248.248,0,0,0,.048,0,.65.65,0,0,0,.094-.022.218.218,0,0,1,.041-.009c.025,0,.085.113.16.257.05.094.1.181.148.264.143.245.256.439.212.605-.073.268-.129.515-.044.624a.149.149,0,0,0,.17.044.914.914,0,0,0,.178-.073.21.21,0,0,1,.077-.03c.027,0,.067.037.124.116a2.091,2.091,0,0,0,.285.3,1.052,1.052,0,0,1,.28.328.82.82,0,0,1,.027.267.384.384,0,0,0,.053.269.142.142,0,0,0,.117.038.681.681,0,0,0,.187-.049.244.244,0,0,1,.244.009c.053.033.112.067.172.106a3.013,3.013,0,0,0,.542.292c.238.086.3.106.42.293a.546.546,0,0,0,.4.241c.1,0,.119-.054.126-.078s.012-.036.057-.036a.833.833,0,0,1,.3.1,1.606,1.606,0,0,0,.41.133.732.732,0,0,1,.272.093.731.731,0,0,0,.332.17.112.112,0,0,0,.112-.081c.017-.047.122-.094.284-.094a1.172,1.172,0,0,1,.306.044,2.5,2.5,0,0,0,.64.113.3.3,0,0,0,.252-.081c.064-.09.126-.177.485-.177a1.359,1.359,0,0,0,.683-.108l.194-.1c.19-.1.452-.231.659-.35s.41-.244.577-.347c.076-.048.142-.088.194-.118a.479.479,0,0,0,.156-.151.139.139,0,0,1,.093-.074.336.336,0,0,0,.207-.169.214.214,0,0,0,.023-.17c-.008-.023.056-.1.1-.156a1.4,1.4,0,0,0,.163-.236.252.252,0,0,1,.126-.125.223.223,0,0,0,.136-.221.982.982,0,0,1,.16-.535,2.3,2.3,0,0,0,.22-.473l.008-.018-.01-.02a.957.957,0,0,1-.012-.48.27.27,0,0,1,.091-.154.2.2,0,0,0,.034-.289,1.558,1.558,0,0,1-.208-.723l0-.031a.4.4,0,0,0-.128-.384c-.04-.048-.075-.086-.105-.117a.42.42,0,0,1-.149-.307c-.006-.047-.009-.08-.011-.1-.005-.066-.009-.09-.066-.113a.548.548,0,0,1-.132-.077c-.219-.163-.322-.252-.382-.435a.192.192,0,0,0-.205-.141.4.4,0,0,1-.27-.11,1.865,1.865,0,0,1-.174-.174c-.088-.094-.157-.171-.262-.171a.3.3,0,0,0-.108.024.463.463,0,0,1-.347-.02c-.051-.017-.1-.034-.164-.048a.667.667,0,0,0-.146-.016,1.368,1.368,0,0,0-.4.084c-.032.012-.066.022-.1.033a1.253,1.253,0,0,1-.212.039.479.479,0,0,0-.337.14,1.038,1.038,0,0,1-.439.292.637.637,0,0,0-.372.358.849.849,0,0,1-.11.15.681.681,0,0,0-.173.291.968.968,0,0,1-.054.16,1.271,1.271,0,0,0-.111.472,2.88,2.88,0,0,0,.421,1.609,1.52,1.52,0,0,0,1.128.508,1.429,1.429,0,0,0,.809-.253.969.969,0,0,0,.271-1.412l-.008-.014a.959.959,0,0,0-.67-.407.206.206,0,0,0-.145.049.284.284,0,0,0-.119.192c0,.073.054.137.136.209a.289.289,0,0,1,.1.13.471.471,0,0,0,.07.126c.044.057.039.078.029.114a.206.206,0,0,0,0,.132c.005,0,0,.01-.034.01a.407.407,0,0,1-.093-.014H532.1c-.026,0-.065.014-.147.128a.053.053,0,0,1-.047.027.194.194,0,0,1-.1-.048l-.048-.042-.028.055a.3.3,0,0,1-.07.091l-.006-.015a.947.947,0,0,1-.031-.094.216.216,0,0,0-.131-.171l-.048-.02a.257.257,0,0,1-.057-.028s0-.013.026-.043c.073-.1.052-.147.011-.208a.7.7,0,0,1-.039-.068c-.006-.017.007-.035.05-.075s.137-.127.042-.235c-.055-.062-.057-.091-.055-.1s.019-.033.059-.054a.293.293,0,0,0,.122-.312.069.069,0,0,1,0-.022c.007-.007.025-.014.08-.014h.072a.477.477,0,0,0,.2-.121.878.878,0,0,1,.1-.072l.03-.015a.178.178,0,0,1,.172-.008.416.416,0,0,0,.232.013l.07-.011c.076-.005.106-.014.2.08l.042.044a.49.49,0,0,0,.2.144c.086.037.248.106.242.173a.3.3,0,0,0,.105.277c.037.036.026.11.018.163a.373.373,0,0,0-.005.066.162.162,0,0,0,.042.091.476.476,0,0,1,.064.107c.026.062.026.066.021.1a.99.99,0,0,0-.009.123,1.793,1.793,0,0,0,.014.181.464.464,0,0,1-.008.264.507.507,0,0,0-.064.19.423.423,0,0,1-.021.087.33.33,0,0,1-.04.067.5.5,0,0,0-.1.279,1.407,1.407,0,0,1-.567.73l-.034.021a3.583,3.583,0,0,1-1.813.564,4.934,4.934,0,0,1-3-.923,6.1,6.1,0,0,1-1.561-3.283,10.434,10.434,0,0,1,.784-3.789c.286-.676.773-1.689,1.245-2.671.375-.78.73-1.516.987-2.091a11,11,0,0,0,.925-3.547c.014-.21.021-.394.027-.555.02-.508.029-.788.25-.953.262-.2.755-.618.9-.74a.476.476,0,0,1,.057.347l-.014.075c-.039.206-.082.439.02.562a.233.233,0,0,0,.19.077,1,1,0,0,0,.834-.388c.1-.216.022-.361-.106-.6l-.041-.077a3.434,3.434,0,0,1-.166-.344,1.06,1.06,0,0,0,.726-.574,3.467,3.467,0,0,1,.3-.6,2.237,2.237,0,0,0,.177-.335c.036-.091.068-.2.1-.3a1.94,1.94,0,0,1,.208-.515,1.914,1.914,0,0,0,.216-.734c.013-.074.025-.147.039-.22a2.726,2.726,0,0,0,.027-.525,1.834,1.834,0,0,1,.037-.506,3.137,3.137,0,0,1,.119-.309,1.871,1.871,0,0,0,.194-.708,2.074,2.074,0,0,0-.066-.418c-.021-.094-.046-.19-.064-.326a2.454,2.454,0,0,1-.014-.394,1.711,1.711,0,0,0-.072-.667c-.036-.092-.074-.18-.111-.265a1.758,1.758,0,0,1-.2-.7,2.2,2.2,0,0,0-.47-1.246,2.92,2.92,0,0,0-.371-.388.718.718,0,0,1-.228-.278,1.451,1.451,0,0,0-.464-.741c-.075-.05-.149-.093-.217-.134a1.392,1.392,0,0,1-.4-.3c-.161-.192-.194-.321-.125-.474a.48.48,0,0,0,.011-.375.424.424,0,0,0-.253-.233,2.672,2.672,0,0,1-.71-.6c-.053-.056-.107-.111-.158-.163a2.474,2.474,0,0,0-.282-.243,1.056,1.056,0,0,1-.271-.275l-.035-.052a1.572,1.572,0,0,0-.437-.487.954.954,0,0,1-.228-.307,2.506,2.506,0,0,0-.508-.657,3.889,3.889,0,0,1-.838-1.054l-.022-.036a1.936,1.936,0,0,1-.39-1.134.136.136,0,0,1,.086-.091.4.4,0,0,1,.131-.018,3.8,3.8,0,0,1,.947.23c.174.057.338.111.454.136a1.712,1.712,0,0,0,.36.034c.184,0,.244.011.258.121.027.2.048.355.2.355a.341.341,0,0,0,.138-.037.689.689,0,0,0,.194-.155.364.364,0,0,1,.274-.156.467.467,0,0,1,.122.018,3.674,3.674,0,0,0,.846.065h.231c.175,0,.344,0,.495,0l.1,0c.427.012.661.02.831.318.157.272.264.421.374.421.056,0,.1-.037.141-.112l.1-.2s.375-.485.632-.743a1.009,1.009,0,0,0,.282-.435c.131,0,.587-.025,1.115-.025a9.538,9.538,0,0,1,1.7.113,5.734,5.734,0,0,1,1.218.387,2.833,2.833,0,0,0,.978.273,1.545,1.545,0,0,0,.465-.056,1.043,1.043,0,0,1,.381-.046.358.358,0,0,0,.362-.127.406.406,0,0,0-.017-.4l-.024-.054a.927.927,0,0,1-.068-.914c.207-.4.315-.711.171-.927a.3.3,0,0,0-.264-.123.8.8,0,0,0-.279.06,1.161,1.161,0,0,1-.448.076,1.517,1.517,0,0,1-.543-.1c-.218-.087-.5-.18-.749-.264-.168-.055-.328-.108-.434-.147-.239-.09-.347-.165-.38-.517-.005-.067-.009-.136-.011-.2-.01-.3-.022-.606-.364-.649a3.7,3.7,0,0,1-1.175-.531c-.087-.052-.176-.1-.262-.142a1.294,1.294,0,0,1-.607-.482c0-.009-.487-.845-.629-.845a.065.065,0,0,0-.05.024c-.018.027-.023.066.014.187a1.988,1.988,0,0,1,.085.754,1.209,1.209,0,0,1-.458-.288,6.489,6.489,0,0,0-1.18-.965c-.37-.226-.614-.374-.567-.808a2.166,2.166,0,0,0-.308-1.433c-.129-.146-.355-.351-.451-.351a.063.063,0,0,0-.06.034c-.02.037-.011.09.091.242l.047.069c.244.358.457.668.281.99-.124.227-.218.257-.294.257a.794.794,0,0,1-.29-.088,3.929,3.929,0,0,0-.711-.206l-.117-.026c-.176-.041-.25-.194-.339-.372l-.022-.044c-.088-.177-.149-.2-.276-.219-.028-.005-.062-.011-.1-.021a1.4,1.4,0,0,1-.14-.047.623.623,0,0,0-.194-.051c-.059,0-.131.026-.145.149a.753.753,0,0,0,0,.127.163.163,0,0,1,0,.066c-.007.005-.03.02-.136.02l-.094,0c-.084,0-.167-.005-.246-.005-.279,0-.414.035-.455.117a.155.155,0,0,0,.037.166c.156.2.185.322.165.364-.013.026-.059.033-.094.033-.018,0-.038,0-.06,0a2.778,2.778,0,0,1-.533-.145.72.72,0,0,0-.359-.078c-.072.026-.076.1-.078.156,0,.077-.012.077-.036.077a.14.14,0,0,1-.039-.005.8.8,0,0,0-.175-.022.23.23,0,0,0-.213.087.183.183,0,0,0,.021.189c.115.2.172.294-.134.527l-.025.018c-.3.228-.575.441-.668.326-.206-.255-.289-.288-.337-.288a.082.082,0,0,0-.063.029.2.2,0,0,0-.027.156.882.882,0,0,1-.423.824,4.2,4.2,0,0,1-1.094.538c-.23.066-.339.11-.295.386a1.27,1.27,0,0,1-.222.935,2.327,2.327,0,0,1-.847.448.589.589,0,0,1-.112.009c-.041,0-.078,0-.1.028s-.023.077,0,.2l.017.114c.047.294.1.658-.121.855a2.466,2.466,0,0,1-.772.451c-.05.017-.1.033-.158.047-.139.036-.25.066-.261.146s.071.13.149.176a.726.726,0,0,1,.34.91c-.139.415-.247.633-.484.744l-.011.005c-.161.074-.266.124-.28.215s.054.151.114.206a1.505,1.505,0,0,1,.3,1.217c-.1.4-.208.444-.45.528l-.077.027c-.177.064-.273.1-.283.177s.061.128.207.222a1.046,1.046,0,0,1,.5.956,1.173,1.173,0,0,1-.348.826,1.285,1.285,0,0,1-.158.143c-.1.085-.191.157-.187.252,0,.061.043.115.126.172a1.327,1.327,0,0,1,.6.883,2,2,0,0,1-.171,1.247c-.04.053-.075.1-.1.133-.087.107-.129.163-.112.223s.091.091.239.145a1.248,1.248,0,0,1,.808.693c.133.37.3.829.1,1.047l-.069.075c-.079.083-.125.133-.123.2s.066.126.186.229c.04.035.08.067.119.1a.645.645,0,0,1,.324.649,1.435,1.435,0,0,1-.064.414c-.131-.013-.659-.059-1.128-.13-.1-.016-.207-.039-.307-.059a2.489,2.489,0,0,0-.488-.073.5.5,0,0,0-.523.359A7.759,7.759,0,0,0,519.977-223.752Z" transform="translate(-498.913 246.54)" fill="#cca42a"/>
    </g>
    <g id="Groupe_24" data-name="Groupe 24" transform="translate(506.437 -196.489)">
      <g id="Groupe_21" data-name="Groupe 21">
        <path id="Tracé_17" data-name="Tracé 17" d="M531.3-197.622a4.093,4.093,0,0,1-2.771-1.044,3.256,3.256,0,0,0-2.256-.871,3.252,3.252,0,0,0-2.256.871,4.1,4.1,0,0,1-2.772,1.044,4.093,4.093,0,0,1-2.771-1.044,3.254,3.254,0,0,0-2.256-.871,3.256,3.256,0,0,0-2.256.871,4.093,4.093,0,0,1-2.772,1.044,4.093,4.093,0,0,1-2.771-1.044,3.257,3.257,0,0,0-2.257-.871h-.187v-.854h.187a4.094,4.094,0,0,1,2.772,1.046,3.256,3.256,0,0,0,2.256.871,3.252,3.252,0,0,0,2.256-.871,4.1,4.1,0,0,1,2.772-1.046,4.1,4.1,0,0,1,2.771,1.044,3.252,3.252,0,0,0,2.256.872,3.252,3.252,0,0,0,2.256-.871,4.1,4.1,0,0,1,2.772-1.046,4.1,4.1,0,0,1,2.771,1.044,3.252,3.252,0,0,0,2.256.872,3.254,3.254,0,0,0,2.256-.871,4.1,4.1,0,0,1,2.772-1.046h.188v.854h-.188a3.252,3.252,0,0,0-2.256.871A4.1,4.1,0,0,1,531.3-197.622Z" transform="translate(-505.978 200.391)" fill="#cca42a"/>
      </g>
      <g id="Groupe_22" data-name="Groupe 22" transform="translate(0 3.035)">
        <path id="Tracé_18" data-name="Tracé 18" d="M531.3-194.824a4.093,4.093,0,0,1-2.771-1.045,3.256,3.256,0,0,0-2.256-.871,3.252,3.252,0,0,0-2.256.871,4.1,4.1,0,0,1-2.772,1.045,4.093,4.093,0,0,1-2.771-1.045,3.254,3.254,0,0,0-2.256-.871,3.256,3.256,0,0,0-2.256.871,4.093,4.093,0,0,1-2.772,1.045,4.093,4.093,0,0,1-2.771-1.045,3.257,3.257,0,0,0-2.257-.871h-.187v-.852h.187a4.094,4.094,0,0,1,2.772,1.044,3.256,3.256,0,0,0,2.256.871,3.252,3.252,0,0,0,2.256-.871,4.1,4.1,0,0,1,2.772-1.044,4.093,4.093,0,0,1,2.771,1.044,3.256,3.256,0,0,0,2.256.871,3.252,3.252,0,0,0,2.256-.871,4.1,4.1,0,0,1,2.772-1.044,4.1,4.1,0,0,1,2.771,1.044,3.256,3.256,0,0,0,2.256.871,3.254,3.254,0,0,0,2.256-.871,4.1,4.1,0,0,1,2.772-1.044h.188v.852h-.188a3.252,3.252,0,0,0-2.256.871A4.1,4.1,0,0,1,531.3-194.824Z" transform="translate(-505.978 197.593)" fill="#cca42a"/>
      </g>
      <g id="Groupe_23" data-name="Groupe 23" transform="translate(0 6.068)">
        <path id="Tracé_19" data-name="Tracé 19" d="M531.3-192.027a4.1,4.1,0,0,1-2.771-1.044,3.256,3.256,0,0,0-2.256-.871,3.256,3.256,0,0,0-2.256.87,4.1,4.1,0,0,1-2.772,1.046,4.1,4.1,0,0,1-2.771-1.044,3.254,3.254,0,0,0-2.256-.871,3.26,3.26,0,0,0-2.256.87,4.093,4.093,0,0,1-2.772,1.046,4.1,4.1,0,0,1-2.771-1.044,3.257,3.257,0,0,0-2.257-.871h-.187v-.854h.187a4.1,4.1,0,0,1,2.772,1.044,3.256,3.256,0,0,0,2.256.871,3.252,3.252,0,0,0,2.256-.871,4.1,4.1,0,0,1,2.772-1.044,4.093,4.093,0,0,1,2.771,1.044,3.256,3.256,0,0,0,2.256.871,3.252,3.252,0,0,0,2.256-.871,4.1,4.1,0,0,1,2.772-1.044,4.1,4.1,0,0,1,2.771,1.044,3.256,3.256,0,0,0,2.256.871,3.254,3.254,0,0,0,2.256-.871,4.1,4.1,0,0,1,2.772-1.044h.188v.854h-.188a3.256,3.256,0,0,0-2.256.87A4.1,4.1,0,0,1,531.3-192.027Z" transform="translate(-505.978 194.796)" fill="#cca42a"/>
      </g>
    </g>
  </g>
</svg>