<svg xmlns="http://www.w3.org/2000/svg" width="13.075" height="20.637" viewBox="0 0 13.075 20.637">
  <g id="telephone" transform="translate(0 0)">
    <path id="Tracé_6998" data-name="Tracé 6998" d="M2903.265,320.5q0-4.264,0-8.528a1.7,1.7,0,0,1,1.369-1.739,2.265,2.265,0,0,1,.479-.037c3.121,0,6.242.012,9.362-.008a1.8,1.8,0,0,1,1.864,1.873c-.018,5.661-.008,11.321-.009,16.982a1.706,1.706,0,0,1-1.318,1.726,2.139,2.139,0,0,1-.5.053q-4.718,0-9.436,0a1.712,1.712,0,0,1-1.778-1.372,2.288,2.288,0,0,1-.037-.479Q2903.263,324.734,2903.265,320.5Zm11.691,4.807v-13.28c0-.344-.11-.455-.455-.455h-9.418c-.333,0-.44.11-.44.446v13.289Zm0,1.4h-10.312v.209q0,1.019,0,2.038c0,.389.1.491.494.491h9.319c.39,0,.5-.108.5-.491v-2.248Z" transform="translate(-2903.264 -310.185)" fill="#ae9e6f"/>
    <path id="Tracé_6999" data-name="Tracé 6999" d="M2983.418,542.719a.687.687,0,0,0-.68-.684.7.7,0,0,0-.694.694.688.688,0,0,0,.7.68A.677.677,0,0,0,2983.418,542.719Z" transform="translate(-2976.202 -524.841)" fill="#ae9e6f"/>
    <path id="Tracé_7000" data-name="Tracé 7000" d="M2983.418,542.719a.677.677,0,0,1-.67.69.688.688,0,0,1-.7-.68.7.7,0,0,1,.694-.694A.687.687,0,0,1,2983.418,542.719Z" transform="translate(-2976.202 -524.841)" fill="#ae9e6f"/>
  </g>
</svg>